<svg xmlns="http://www.w3.org/2000/svg">
    <symbol id="fb" viewBox="0 0 64 64">
            <path class="cls-2" d="M54.4,29.6h-10V22c0-1.86,2.14-2,2.8-2H54V9.6H47.2C39.67,9.6,34,14.93,34,22v7.6H25.6V40H34V64H44.4V40h8.4Z"/>
    </symbol>

    <symbol id="in" viewBox="0 0 128 128">
        <path clip-rule="evenodd" d="M105.843,29.837    c0,4.242-3.439,7.68-7.68,7.68c-4.241,0-7.68-3.438-7.68-7.68c0-4.242,3.439-7.68,7.68-7.68    C102.405,22.157,105.843,25.595,105.843,29.837z M64,85.333c-11.782,0-21.333-9.551-21.333-21.333    c0-11.782,9.551-21.333,21.333-21.333c11.782,0,21.333,9.551,21.333,21.333C85.333,75.782,75.782,85.333,64,85.333z M64,31.135    c-18.151,0-32.865,14.714-32.865,32.865c0,18.151,14.714,32.865,32.865,32.865c18.151,0,32.865-14.714,32.865-32.865    C96.865,45.849,82.151,31.135,64,31.135z M64,11.532c17.089,0,19.113,0.065,25.861,0.373c6.24,0.285,9.629,1.327,11.884,2.204    c2.987,1.161,5.119,2.548,7.359,4.788c2.24,2.239,3.627,4.371,4.788,7.359c0.876,2.255,1.919,5.644,2.204,11.884    c0.308,6.749,0.373,8.773,0.373,25.862c0,17.089-0.065,19.113-0.373,25.861c-0.285,6.24-1.327,9.629-2.204,11.884    c-1.161,2.987-2.548,5.119-4.788,7.359c-2.239,2.24-4.371,3.627-7.359,4.788c-2.255,0.876-5.644,1.919-11.884,2.204    c-6.748,0.308-8.772,0.373-25.861,0.373c-17.09,0-19.114-0.065-25.862-0.373c-6.24-0.285-9.629-1.327-11.884-2.204    c-2.987-1.161-5.119-2.548-7.359-4.788c-2.239-2.239-3.627-4.371-4.788-7.359c-0.876-2.255-1.919-5.644-2.204-11.884    c-0.308-6.749-0.373-8.773-0.373-25.861c0-17.089,0.065-19.113,0.373-25.862c0.285-6.24,1.327-9.629,2.204-11.884    c1.161-2.987,2.548-5.119,4.788-7.359c2.239-2.24,4.371-3.627,7.359-4.788c2.255-0.876,5.644-1.919,11.884-2.204    C44.887,11.597,46.911,11.532,64,11.532z M64,0C46.619,0,44.439,0.074,37.613,0.385C30.801,0.696,26.148,1.778,22.078,3.36    c-4.209,1.635-7.778,3.824-11.336,7.382C7.184,14.3,4.995,17.869,3.36,22.078c-1.582,4.071-2.664,8.723-2.975,15.535    C0.074,44.439,0,46.619,0,64c0,17.381,0.074,19.561,0.385,26.387c0.311,6.812,1.393,11.464,2.975,15.535    c1.635,4.209,3.824,7.778,7.382,11.336c3.558,3.558,7.127,5.746,11.336,7.382c4.071,1.582,8.723,2.664,15.535,2.975    C44.439,127.926,46.619,128,64,128c17.381,0,19.561-0.074,26.387-0.385c6.812-0.311,11.464-1.393,15.535-2.975    c4.209-1.636,7.778-3.824,11.336-7.382c3.558-3.558,5.746-7.127,7.382-11.336c1.582-4.071,2.664-8.723,2.975-15.535    C127.926,83.561,128,81.381,128,64c0-17.381-0.074-19.561-0.385-26.387c-0.311-6.812-1.393-11.464-2.975-15.535    c-1.636-4.209-3.824-7.778-7.382-11.336c-3.558-3.558-7.127-5.746-11.336-7.382c-4.071-1.582-8.723-2.664-15.535-2.975    C83.561,0.074,81.381,0,64,0z" fill="url(#Instagram_2_)" fill-rule="evenodd" id="Instagram"/>
    </symbol>

    <symbol id="tw" viewBox="0 0 128 128">
            <rect clip-rule="evenodd" fill="none" fill-rule="evenodd" height="128" width="128"/><path clip-rule="evenodd" d="M128,23.294    c-4.703,2.142-9.767,3.59-15.079,4.237c5.424-3.328,9.587-8.606,11.548-14.892c-5.079,3.082-10.691,5.324-16.687,6.526    c-4.778-5.231-11.608-8.498-19.166-8.498c-14.493,0-26.251,12.057-26.251,26.927c0,2.111,0.225,4.16,0.676,6.133    C41.217,42.601,21.871,31.892,8.91,15.582c-2.261,3.991-3.554,8.621-3.554,13.552c0,9.338,4.636,17.581,11.683,22.412    c-4.297-0.131-8.355-1.356-11.901-3.359v0.331c0,13.051,9.053,23.937,21.074,26.403c-2.201,0.632-4.523,0.948-6.92,0.948    c-1.69,0-3.343-0.162-4.944-0.478c3.343,10.694,13.035,18.483,24.53,18.691c-8.986,7.227-20.315,11.533-32.614,11.533    c-2.119,0-4.215-0.123-6.266-0.37c11.623,7.627,25.432,12.088,40.255,12.088c48.309,0,74.717-41.026,74.717-76.612    c0-1.171-0.023-2.342-0.068-3.49C120.036,33.433,124.491,28.695,128,23.294" fill="#00AAEC" fill-rule="evenodd" id="Twitter_1_"/>
    </symbol>
</svg> 
